<svg width="20" height="21" viewBox="0 0 20 21" fill="none" xmlns="http://www.w3.org/2000/svg">
<path d="M9.3724 10.6936V13.402C9.3724 13.5793 9.43222 13.7278 9.55188 13.8475C9.67153 13.9672 9.82003 14.027 9.99738 14.027C10.1747 14.027 10.3232 13.9672 10.4429 13.8475C10.5625 13.7278 10.6224 13.5793 10.6224 13.402V10.6936H13.3307C13.5081 10.6936 13.6566 10.6338 13.7762 10.5142C13.8959 10.3945 13.9557 10.246 13.9557 10.0687C13.9557 9.89132 13.8959 9.74282 13.7762 9.62316C13.6566 9.50351 13.5081 9.44369 13.3307 9.44369H10.6224V6.73533C10.6224 6.55798 10.5625 6.40948 10.4429 6.28983C10.3232 6.17018 10.1747 6.11035 9.99738 6.11035C9.82003 6.11035 9.67153 6.17018 9.55188 6.28983C9.43222 6.40948 9.3724 6.55798 9.3724 6.73533V9.44369H6.66404C6.48669 9.44369 6.33819 9.50351 6.21854 9.62316C6.09889 9.74282 6.03906 9.89132 6.03906 10.0687C6.03906 10.246 6.09889 10.3945 6.21854 10.5142C6.33819 10.6338 6.48669 10.6936 6.66404 10.6936H9.3724ZM4.42048 17.152C3.99953 17.152 3.64323 17.0061 3.35156 16.7145C3.0599 16.4228 2.91406 16.0665 2.91406 15.6456V4.49177C2.91406 4.07082 3.0599 3.71452 3.35156 3.42285C3.64323 3.13118 3.99953 2.98535 4.42048 2.98535H15.5743C15.9952 2.98535 16.3515 3.13118 16.6432 3.42285C16.9349 3.71452 17.0807 4.07082 17.0807 4.49177V15.6456C17.0807 16.0665 16.9349 16.4228 16.6432 16.7145C16.3515 17.0061 15.9952 17.152 15.5743 17.152H4.42048ZM4.42048 15.902H15.5743C15.6384 15.902 15.6972 15.8753 15.7506 15.8219C15.804 15.7684 15.8307 15.7097 15.8307 15.6456V4.49177C15.8307 4.42766 15.804 4.36889 15.7506 4.31546C15.6972 4.26204 15.6384 4.23533 15.5743 4.23533H4.42048C4.35637 4.23533 4.2976 4.26204 4.24417 4.31546C4.19075 4.36889 4.16404 4.42766 4.16404 4.49177V15.6456C4.16404 15.7097 4.19075 15.7684 4.24417 15.8219C4.2976 15.8753 4.35637 15.902 4.42048 15.902Z" fill="#787486"/>
</svg>
