<svg width="20" height="20" viewBox="0 0 20 20" fill="none" xmlns="http://www.w3.org/2000/svg">
<path d="M7.64075 10L13.918 16.2772C14.0836 16.4428 14.1643 16.64 14.16 16.8686C14.1557 17.0972 14.0708 17.2943 13.9052 17.4599C13.7396 17.6255 13.5425 17.7083 13.3139 17.7083C13.0852 17.7083 12.8881 17.6255 12.7225 17.4599L6.3427 11.0673C6.19206 10.9167 6.08042 10.7479 6.00777 10.5609C5.93513 10.3739 5.89881 10.187 5.89881 10C5.89881 9.81304 5.93513 9.62608 6.00777 9.4391C6.08042 9.25215 6.19207 9.08335 6.3427 8.93271L12.7353 2.54008C12.9009 2.37449 13.0959 2.29382 13.3203 2.29808C13.5446 2.30236 13.7396 2.3873 13.9052 2.5529C14.0708 2.71849 14.1536 2.9156 14.1536 3.14423C14.1536 3.37285 14.0708 3.56997 13.9052 3.73556L7.64075 10Z" fill="#333236"/>
</svg>
