<svg width="8" height="14" viewBox="0 0 8 14" fill="none" xmlns="http://www.w3.org/2000/svg">
<path d="M6.22587 6.99998L0.576343 1.35046C0.427305 1.20142 0.354705 1.02402 0.358543 0.818256C0.362393 0.612481 0.438836 0.435082 0.587874 0.286057C0.736911 0.137019 0.914312 0.0625 1.12007 0.0625C1.32584 0.0625 1.50324 0.137019 1.65227 0.286057L7.39411 6.03942C7.52968 6.17499 7.63016 6.32691 7.69555 6.49518C7.76092 6.66345 7.79361 6.83172 7.79361 6.99998C7.79361 7.16824 7.76092 7.33651 7.69555 7.50479C7.63016 7.67305 7.52968 7.82497 7.39411 7.96054L1.64074 13.7139C1.4917 13.8629 1.31622 13.9355 1.1143 13.9317C0.912386 13.9279 0.736911 13.8514 0.587874 13.7024C0.438836 13.5533 0.364318 13.3759 0.364318 13.1702C0.364318 12.9644 0.438836 12.787 0.587874 12.638L6.22587 6.99998Z" fill="#333236"/>
</svg>
