<svg width="16" height="17" viewBox="0 0 16 17" fill="none" xmlns="http://www.w3.org/2000/svg">
<path d="M9.8874 8.0729L4.8656 3.0511C4.73313 2.91862 4.66859 2.76093 4.672 2.57803C4.67543 2.39512 4.74338 2.23743 4.87585 2.10497C5.00833 1.97249 5.16602 1.90625 5.34892 1.90625C5.53182 1.90625 5.68951 1.97249 5.82199 2.10497L10.9258 7.21907C11.0463 7.33958 11.1357 7.47462 11.1938 7.62418C11.2519 7.77376 11.281 7.92333 11.281 8.0729C11.281 8.22247 11.2519 8.37204 11.1938 8.52162C11.1357 8.67118 11.0463 8.80622 10.9258 8.92673L5.81174 14.0408C5.67926 14.1733 5.52328 14.2378 5.34379 14.2344C5.16431 14.231 5.00833 14.1631 4.87585 14.0306C4.74338 13.8981 4.67714 13.7404 4.67714 13.5575C4.67714 13.3746 4.74338 13.2169 4.87585 13.0844L9.8874 8.0729Z" fill="#787486"/>
</svg>
