<svg width="16" height="17" viewBox="0 0 16 17" fill="none" xmlns="http://www.w3.org/2000/svg">
<path d="M6.1126 8.06772L11.1344 13.0895C11.2669 13.222 11.3314 13.3797 11.328 13.5626C11.3246 13.7455 11.2566 13.9032 11.1241 14.0357C10.9917 14.1681 10.834 14.2344 10.6511 14.2344C10.4682 14.2344 10.3105 14.1681 10.178 14.0357L5.07416 8.92156C4.95365 8.80105 4.86434 8.66601 4.80621 8.51644C4.7481 8.36686 4.71905 8.21729 4.71905 8.06772C4.71905 7.91816 4.7481 7.76859 4.80621 7.61901C4.86434 7.46944 4.95365 7.3344 5.07416 7.21389L10.1883 2.09979C10.3207 1.96731 10.4767 1.90278 10.6562 1.90619C10.8357 1.90961 10.9917 1.97756 11.1241 2.11004C11.2566 2.24252 11.3229 2.40021 11.3229 2.58311C11.3229 2.76601 11.2566 2.9237 11.1241 3.05618L6.1126 8.06772Z" fill="#787486"/>
</svg>
