<svg width="26" height="26" viewBox="0 0 26 26" fill="none" xmlns="http://www.w3.org/2000/svg">
<path d="M12.4802 15.355L9.06643 11.9413C9.01935 11.8942 8.98226 11.8416 8.95518 11.7836C8.92809 11.7255 8.91455 11.6632 8.91455 11.5969C8.91455 11.4641 8.95944 11.3488 9.04921 11.2509C9.13896 11.153 9.25727 11.104 9.40414 11.104H16.5957C16.7426 11.104 16.8609 11.1534 16.9507 11.2523C17.0404 11.3512 17.0853 11.4665 17.0853 11.5983C17.0853 11.6313 17.0346 11.7457 16.9332 11.9415L13.5197 15.355C13.4412 15.4335 13.3601 15.4908 13.2764 15.5269C13.1926 15.563 13.1005 15.581 12.9999 15.581C12.8994 15.581 12.8073 15.563 12.7235 15.5269C12.6397 15.4908 12.5586 15.4335 12.4802 15.355Z" fill="#333236"/>
</svg>
