<svg width="22" height="22" viewBox="0 0 22 22" fill="none" xmlns="http://www.w3.org/2000/svg">
<path d="M8.75443 14.2233L16.673 6.3047C16.8094 6.16838 16.9712 6.09874 17.1587 6.09579C17.3461 6.09286 17.5109 6.1625 17.6531 6.3047C17.7953 6.44689 17.8664 6.61024 17.8664 6.79475C17.8664 6.97924 17.7953 7.1426 17.6531 7.2848L9.33438 15.6035C9.16868 15.7692 8.97536 15.8521 8.75443 15.8521C8.53349 15.8521 8.34018 15.7692 8.17447 15.6035L4.34739 11.7765C4.21107 11.6401 4.14378 11.4783 4.14554 11.2908C4.14731 11.1034 4.21929 10.9386 4.36149 10.7964C4.50369 10.6542 4.66704 10.5831 4.85154 10.5831C5.03605 10.5831 5.1994 10.6542 5.34159 10.7964L8.75443 14.2233Z" fill="#787486"/>
</svg>
