<svg width="20" height="20" viewBox="0 0 20 20" fill="none" xmlns="http://www.w3.org/2000/svg">
<path d="M9.3763 10.7083V13.4166C9.3763 13.594 9.43613 13.7425 9.55578 13.8621C9.67544 13.9818 9.82394 14.0416 10.0013 14.0416C10.1786 14.0416 10.3271 13.9818 10.4468 13.8621C10.5664 13.7425 10.6263 13.594 10.6263 13.4166V10.7083H13.3346C13.512 10.7083 13.6605 10.6485 13.7801 10.5288C13.8998 10.4092 13.9596 10.2607 13.9596 10.0833C13.9596 9.90597 13.8998 9.75747 13.7801 9.63781C13.6605 9.51816 13.512 9.45833 13.3346 9.45833H10.6263V6.74998C10.6263 6.57263 10.5664 6.42413 10.4468 6.30448C10.3271 6.18483 10.1786 6.125 10.0013 6.125C9.82394 6.125 9.67544 6.18483 9.55578 6.30448C9.43613 6.42413 9.3763 6.57263 9.3763 6.74998V9.45833H6.66795C6.4906 9.45833 6.3421 9.51816 6.22245 9.63781C6.1028 9.75747 6.04297 9.90597 6.04297 10.0833C6.04297 10.2607 6.1028 10.4092 6.22245 10.5288C6.3421 10.6485 6.4906 10.7083 6.66795 10.7083H9.3763ZM4.42439 17.1666C4.00344 17.1666 3.64714 17.0208 3.35547 16.7291C3.0638 16.4375 2.91797 16.0812 2.91797 15.6602V4.50642C2.91797 4.08547 3.0638 3.72917 3.35547 3.4375C3.64714 3.14583 4.00344 3 4.42439 3H15.5782C15.9991 3 16.3554 3.14583 16.6471 3.4375C16.9388 3.72917 17.0846 4.08547 17.0846 4.50642V15.6602C17.0846 16.0812 16.9388 16.4375 16.6471 16.7291C16.3554 17.0208 15.9991 17.1666 15.5782 17.1666H4.42439ZM4.42439 15.9166H15.5782C15.6423 15.9166 15.7011 15.8899 15.7545 15.8365C15.8079 15.7831 15.8346 15.7243 15.8346 15.6602V4.50642C15.8346 4.44231 15.8079 4.38354 15.7545 4.3301C15.7011 4.27669 15.6423 4.24998 15.5782 4.24998H4.42439C4.36027 4.24998 4.3015 4.27669 4.24807 4.3301C4.19466 4.38354 4.16795 4.44231 4.16795 4.50642V15.6602C4.16795 15.7243 4.19466 15.7831 4.24807 15.8365C4.3015 15.8899 4.36027 15.9166 4.42439 15.9166Z" fill="#787486"/>
</svg>
