<svg width="18" height="18" viewBox="0 0 18 18" fill="none" xmlns="http://www.w3.org/2000/svg">
<path d="M7.67244 10.3286H1.92282C1.5504 10.3286 1.23611 10.2005 0.979945 9.94432C0.723784 9.68816 0.595703 9.37388 0.595703 9.00148C0.595703 8.62908 0.723784 8.3148 0.979945 8.05864C1.23611 7.80247 1.5504 7.67439 1.92282 7.67439H7.67244V1.92477C7.67244 1.55235 7.80052 1.23806 8.05668 0.981898C8.31284 0.725737 8.62712 0.597656 8.99952 0.597656C9.37192 0.597656 9.6862 0.725737 9.94237 0.981898C10.1985 1.23806 10.3266 1.55235 10.3266 1.92477V7.67439H16.0762C16.4487 7.67439 16.7629 7.80247 17.0191 8.05864C17.2753 8.3148 17.4033 8.62908 17.4033 9.00148C17.4033 9.37388 17.2753 9.68816 17.0191 9.94432C16.7629 10.2005 16.4487 10.3286 16.0762 10.3286H10.3266V16.0782C10.3266 16.4506 10.1985 16.7649 9.94237 17.0211C9.6862 17.2772 9.37192 17.4053 8.99952 17.4053C8.62712 17.4053 8.31284 17.2772 8.05668 17.0211C7.80052 16.7649 7.67244 16.4506 7.67244 16.0782V10.3286Z" fill="#5534DA"/>
</svg>
