<svg width="20" height="20" viewBox="0 0 20 20" fill="none" xmlns="http://www.w3.org/2000/svg">
<path d="M4.42304 17.9177C4.0021 17.9177 3.64579 17.7719 3.35413 17.4802C3.06246 17.1886 2.91663 16.8322 2.91663 16.4113V5.25751C2.91663 4.83657 3.06246 4.48026 3.35413 4.18859C3.64579 3.89693 4.0021 3.75109 4.42304 3.75109H5.5769V2.62928C5.5769 2.4466 5.63806 2.29409 5.7604 2.17176C5.88272 2.04944 6.03522 1.98828 6.21792 1.98828C6.4006 1.98828 6.55311 2.04944 6.67544 2.17176C6.79776 2.29409 6.85892 2.4466 6.85892 2.62928V3.75109H13.173V2.61326C13.173 2.43591 13.2328 2.28741 13.3525 2.16776C13.4721 2.04811 13.6206 1.98828 13.798 1.98828C13.9753 1.98828 14.1238 2.04811 14.2435 2.16776C14.3631 2.28741 14.423 2.43591 14.423 2.61326V3.75109H15.5768C15.9978 3.75109 16.3541 3.89693 16.6458 4.18859C16.9374 4.48026 17.0833 4.83657 17.0833 5.25751V16.4113C17.0833 16.8322 16.9374 17.1886 16.6458 17.4802C16.3541 17.7719 15.9978 17.9177 15.5768 17.9177H4.42304ZM4.42304 16.6677H15.5768C15.6409 16.6677 15.6997 16.641 15.7531 16.5876C15.8066 16.5342 15.8333 16.4754 15.8333 16.4113V8.59084H4.1666V16.4113C4.1666 16.4754 4.19331 16.5342 4.24673 16.5876C4.30016 16.641 4.35893 16.6677 4.42304 16.6677ZM4.1666 7.34087H15.8333V5.25751C15.8333 5.1934 15.8066 5.13463 15.7531 5.0812C15.6997 5.02778 15.6409 5.00107 15.5768 5.00107H4.42304C4.35893 5.00107 4.30016 5.02778 4.24673 5.0812C4.19331 5.13463 4.1666 5.1934 4.1666 5.25751V7.34087Z" fill="#787486"/>
</svg>
