<svg width="100" height="100" viewBox="0 0 100 100" fill="none" xmlns="http://www.w3.org/2000/svg">
<path d="M49.9973 45.8332L21.079 27.3316C20.219 26.7814 19.3416 26.7333 18.4468 27.1873C17.552 27.6413 17.0646 28.3625 16.9845 29.3507C16.9043 29.8689 16.9631 30.3683 17.1607 30.8491C17.3584 31.3298 17.6949 31.7171 18.1703 32.0109L47.9701 51.0495C48.6144 51.4394 49.291 51.6344 49.9998 51.6344C50.7086 51.6344 51.3835 51.4394 52.0245 51.0495L81.8243 32.0109C82.2997 31.7171 82.6429 31.3298 82.8539 30.8491C83.0648 30.3683 83.1169 29.8689 83.0101 29.3507C82.93 28.3625 82.4425 27.648 81.5478 27.2074C80.653 26.7667 79.7756 26.8215 78.9156 27.3717L49.9973 45.8332ZM79.164 93.7497C73.961 93.7497 69.5353 91.9255 65.8868 88.2771C62.2383 84.6285 60.4141 80.2028 60.4141 74.9999C60.4141 69.797 62.2383 65.3713 65.8868 61.7227C69.5353 58.0742 73.961 56.25 79.164 56.25C84.3669 56.25 88.7926 58.0742 92.4412 61.7227C96.0896 65.3713 97.9139 69.797 97.9139 74.9999C97.9139 80.2028 96.0896 84.6285 92.4412 88.2771C88.7926 91.9256 84.3669 93.7498 79.164 93.7498V93.7497ZM69.8692 76.8428H88.468C88.964 76.8428 89.3936 76.6585 89.7568 76.2899C90.12 75.9214 90.3017 75.4914 90.3017 74.9999C90.3017 74.5084 90.1174 74.0784 89.7489 73.7099C89.3802 73.3413 88.9502 73.157 88.4588 73.157H69.8599C69.3639 73.157 68.9343 73.3413 68.5712 73.7099C68.2079 74.0784 68.0263 74.5084 68.0263 74.9999C68.0263 75.4914 68.2105 75.9214 68.5791 76.2899C68.9477 76.6585 69.3777 76.8428 69.8692 76.8428ZM17.9461 81.2498C15.8748 81.2498 14.1017 80.5123 12.6267 79.0372C11.1516 77.5622 10.4141 75.789 10.4141 73.7177V26.2821C10.4141 24.2108 11.1516 22.4376 12.6267 20.9626C14.1017 19.4875 15.8748 18.75 17.9461 18.75H82.0484C84.1198 18.75 85.8929 19.4875 87.3679 20.9626C88.843 22.4376 89.5805 24.2108 89.5805 26.2821V50.1122C87.9299 49.3804 86.2365 48.8315 84.5004 48.4656C82.7643 48.0997 80.9855 47.9167 79.164 47.9167C71.6194 47.9167 65.2194 50.5444 59.964 55.7999C54.7085 61.0553 52.0807 67.4553 52.0807 74.9999C52.0807 76.0416 52.1449 77.0832 52.2731 78.1248C52.4013 79.1665 52.6203 80.2081 52.9301 81.2498H17.9461Z" fill="#D9D9D9"/>
</svg>
