<svg width="22" height="22" viewBox="0 0 22 22" fill="none" xmlns="http://www.w3.org/2000/svg">
<path d="M18.3462 1.06543H3.46904C2.69611 1.06543 1.95483 1.37247 1.40828 1.91902C0.861734 2.46558 0.554688 3.20685 0.554688 3.97979V18.8569C0.554688 19.6299 0.861734 20.3712 1.40828 20.9177C1.95483 21.4642 2.69611 21.7713 3.46904 21.7713H10.2399V14.2137H7.6801V11.2657H10.2399V9.09414C10.2399 7.86343 10.5802 6.90708 11.2609 6.22767C11.9416 5.54696 12.8643 5.20532 14.0303 5.20532C15.1976 5.20532 15.9534 5.25061 16.2989 5.33602V7.96049H14.7434C14.1817 7.96049 13.7987 8.07955 13.5929 8.31767C13.3884 8.55449 13.2862 8.91167 13.2862 9.38661V11.2657H16.2018L15.8136 14.2137H13.2862V21.7713H18.3462C19.1192 21.7713 19.8604 21.4642 20.4069 20.9177C20.9536 20.3712 21.2605 19.6299 21.2605 18.8569V3.97979C21.2605 3.20685 20.9536 2.46558 20.4069 1.91902C19.8604 1.37247 19.1192 1.06543 18.3462 1.06543Z" fill="white"/>
</svg>
