<svg width="189" height="61" viewBox="0 0 189 61" fill="none" xmlns="http://www.w3.org/2000/svg">
<g clip-path="url(#clip0_547_10966)">
<path d="M60.9089 10.218C60.8881 10.1766 60.8397 10.1489 60.7913 10.1627C60.3691 10.3425 59.947 10.4945 59.511 10.6535C58.3138 11.0959 57.0682 11.3862 55.8226 11.6765C54.397 11.9944 52.9438 12.2225 51.5251 12.5751C50.3003 12.8723 49.0823 13.2317 47.9059 13.7017C47.0201 14.0473 46.1482 14.4206 45.3316 14.8975C44.3628 15.4297 43.5808 16.2246 42.8196 17.0126C42.1206 17.7453 41.4148 18.478 40.7989 19.2867C40.4529 19.7429 40.1622 20.2405 39.8854 20.7382C40.3214 19.0931 40.9303 17.4342 42.0445 16.1209C42.1275 16.0173 42.0307 15.8928 41.913 15.9481C41.6293 16.0864 41.3663 16.2661 41.0964 16.432C39.0342 17.8282 37.1934 19.5632 35.6087 21.4778C34.8337 22.4248 34.0863 23.3924 33.4704 24.45C32.7576 25.6873 32.2178 27.0213 31.8303 28.3968C31.7888 27.5812 31.858 26.7655 31.9687 25.9568C31.9895 25.8117 32.0102 25.6734 32.0172 25.5283C32.0172 25.4315 32.0448 25.2933 31.948 25.238C31.8787 25.2034 31.8095 25.238 31.7611 25.2933C31.6988 25.3555 31.6504 25.4246 31.595 25.4937C31.4843 25.6389 31.3736 25.7909 31.2698 25.943C30.9238 26.4338 30.6124 26.9522 30.3425 27.4913C29.6781 28.853 29.0692 30.2285 28.4533 31.6109C27.8304 32.9933 27.2561 34.4034 26.654 35.7927C26.0796 37.106 25.4499 38.3985 24.7994 39.6773C24.4465 40.3616 24.0866 41.0459 23.6645 41.6956C23.4846 41.9721 23.2977 42.2417 23.104 42.5043C23.1316 42.449 23.1593 42.4006 23.187 42.3453C23.7545 41.2325 24.142 40.0436 24.4949 38.8478C24.7856 38.0806 25.0762 37.3134 25.4015 36.5668C25.7821 35.7167 26.1212 34.8527 26.4464 33.9817C27.0969 32.3367 27.8858 30.7607 28.7854 29.2331C29.3667 28.2447 29.9895 27.277 30.557 26.2748C31.0898 25.3347 31.512 24.3394 31.9964 23.3786C32.3562 22.6598 32.723 21.9409 33.0344 21.2013C33.1244 20.994 33.2143 20.7797 33.2974 20.5654C33.332 20.4617 33.3735 20.3511 33.3943 20.2405C33.3943 20.1991 33.4012 20.1507 33.3735 20.1092C33.3112 20.0124 33.1867 20.047 33.1105 20.1092C32.8891 20.2751 32.6815 20.4479 32.467 20.6276C31.7749 21.2151 31.0552 21.7681 30.3148 22.2934C31.8995 20.3719 33.588 18.4088 34.3493 15.9896C34.4046 15.7823 34.5569 15.2639 34.4046 15.091C34.3008 15.0012 34.1832 15.1256 34.1209 15.2016C33.4773 16.0034 32.7991 16.7776 32.0448 17.4757C32.3355 17.0195 32.6123 16.5495 32.8614 16.0657C33.2766 15.2362 33.6849 14.3998 34.024 13.5358C34.4254 12.4783 34.7299 11.3931 35.0482 10.3148C35.3734 9.13976 35.6641 7.95088 36.017 6.78274C36.0516 6.67215 36.0862 6.56155 36.107 6.44405C36.107 6.40949 36.1208 6.36802 36.107 6.33346C36.0862 6.27125 36.0101 6.22978 35.9478 6.25051C35.8925 6.26434 35.8371 6.2989 35.7887 6.34037C35.0828 7.00393 34.4531 7.74352 33.7749 8.42781C33.2766 8.93931 32.7715 9.45771 32.294 9.98994C31.3321 11.082 30.474 12.2709 29.7958 13.5566C29.1799 14.7247 28.7301 15.9896 28.4533 17.2822C28.0796 18.9687 27.955 20.6967 27.7197 22.404C27.4498 21.6644 27.2907 20.8834 27.2561 20.0885C27.2422 19.8258 27.2284 19.5493 27.2145 19.2659C27.2145 19.1346 27.2145 18.8512 27.0139 18.9134C26.9516 18.948 26.917 19.0171 26.8824 19.0862C26.8201 19.2106 26.7647 19.342 26.7094 19.4733C26.5364 19.8742 26.3426 20.2613 26.1627 20.6553C25.6506 21.7612 25.2077 22.9086 24.9793 24.1044C24.7786 25.0859 24.6748 26.0882 24.6748 27.0835C24.6748 28.4797 24.8894 29.8552 24.8824 31.2584C24.5018 30.6432 24.1143 30.0211 23.9551 29.3023C23.8721 28.9636 23.8098 28.6249 23.7545 28.2862C23.7406 28.1894 23.7199 28.0857 23.706 27.989C23.6922 27.9199 23.6922 27.83 23.6368 27.7816C23.5123 27.6848 23.4292 27.8507 23.4015 27.9544C23.1662 28.7009 23.0486 29.4889 23.0209 30.2769C22.9863 31.0718 23.0624 31.8666 23.1386 32.6615C23.2078 33.3804 23.2839 34.0992 23.3323 34.825C23.2977 35.0877 23.2839 35.3503 23.2631 35.613C23.1801 36.9055 23.0348 38.1981 22.7856 39.4699C22.6195 40.4929 22.405 41.5021 22.0452 42.4836C21.8376 43.1817 21.5677 43.8591 21.2286 44.5019C21.1732 44.5918 21.1248 44.6885 21.0763 44.7784C20.4051 45.9742 19.7892 47.1976 19.111 48.3865C18.7027 49.0846 18.3083 49.7966 17.9415 50.5223C17.6716 50.9923 17.4225 51.4693 17.208 51.96C17.0211 52.3748 16.8412 52.7964 16.6751 53.218C16.6128 53.3977 16.4329 53.7572 16.5298 53.9369C16.6751 54.0682 16.7928 53.8954 16.8827 53.7088C16.9035 53.6881 16.9242 53.6673 16.9381 53.6466C16.9934 53.5705 17.0419 53.4945 17.0834 53.4116C17.1941 53.2249 17.3049 53.0452 17.4087 52.8655C17.8654 52.0706 18.3083 51.2688 18.7581 50.467C19.4293 49.2228 20.1629 48.0132 20.9033 46.8036C21.0279 46.6032 21.1456 46.4027 21.2701 46.1954C21.4224 45.9742 21.5746 45.7599 21.7338 45.5387C22.0175 45.1516 22.322 44.7784 22.6542 44.4328C23.0624 43.9835 23.5745 43.548 24.052 43.1679C24.744 42.608 25.3669 41.9721 25.9758 41.3293C27.3945 39.7879 28.7301 38.1704 30.1141 36.5945C31.0345 35.4886 32.0241 34.4241 33.0829 33.4564C33.8648 32.7998 34.6745 32.1708 35.498 31.5694C36.8128 30.6294 38.1969 29.793 39.5048 28.8392C41.048 27.7125 42.5566 26.5374 43.9406 25.2172C43.9821 25.1688 44.0306 25.1135 44.0029 25.0444C43.9752 24.9546 43.8645 24.9684 43.7884 24.9891C43.477 25.0721 43.1794 25.1965 42.8749 25.2725C42.5635 25.3416 42.2452 25.4039 41.9338 25.4592C41.0826 25.625 40.2106 25.6942 39.3456 25.7011C39.837 25.5144 40.3352 25.3347 40.8335 25.1688C42.0722 24.7956 43.3247 24.4776 44.5358 24.0214C46.6879 23.2819 48.5702 21.9547 50.2933 20.4963C50.7155 20.1438 51.1445 19.7913 51.5321 19.3973C51.6013 19.3143 51.7051 19.2383 51.7189 19.1208C51.7189 18.9825 51.5528 18.9825 51.449 19.0102C50.4802 19.2176 49.5044 19.418 48.5218 19.5217C47.8713 19.5839 47.1931 19.6323 46.5426 19.5148C47.2969 19.2867 48.0581 19.0862 48.8332 18.9272C49.5529 18.7821 50.2795 18.6439 50.9784 18.4296C52.0649 18.1116 53.0407 17.4895 53.8711 16.7292C54.3693 16.2523 54.833 15.7408 55.2897 15.2224C55.7741 14.6694 56.2101 14.075 56.7222 13.5427C57.3935 12.8377 58.127 12.1949 58.909 11.6212C59.4903 11.165 60.1131 10.7779 60.7567 10.4116C60.8051 10.3839 60.8535 10.3701 60.902 10.3425C60.9435 10.3148 60.9573 10.2664 60.9366 10.218H60.9089ZM23.0901 43.0573C23.0901 43.0573 23.0901 43.0573 23.0763 43.0573H23.0832H23.0901ZM24.744 35.6268C25.2769 33.885 25.789 32.1362 26.3426 30.4013C26.8616 28.6249 27.3806 26.8485 27.9273 25.0859C28.5363 22.9985 29.0207 20.8765 29.6643 18.7959C30.121 17.3306 30.6331 15.879 31.2075 14.4551C31.7265 13.1695 32.3078 11.9046 33.0967 10.7572C32.4531 12.2847 31.7888 13.7985 31.2283 15.3537C30.6885 16.7154 30.2317 18.1047 29.8373 19.5148C28.8754 22.6321 28.2941 25.8531 27.3668 28.9774C26.9723 30.3598 26.5295 31.7284 26.052 33.0901C25.7129 34.0647 25.3115 35.0393 24.9793 36.0139C24.2389 38.1774 23.5538 40.3616 22.7095 42.4905C22.6957 42.5043 22.6818 42.5181 22.668 42.532C22.6403 42.5251 22.6126 42.532 22.5919 42.5389C22.7372 42.0827 22.8756 41.6196 22.9932 41.1565C23.5538 39.304 24.1697 37.4723 24.744 35.6268V35.6268ZM45.5461 18.6369C44.7434 19.1899 43.9406 19.7429 43.1794 20.3442C41.913 21.3534 40.6812 22.3971 39.4563 23.4547C38.7436 24.0906 38.1 24.8025 37.4287 25.4868C36.7644 26.178 36.0931 26.8554 35.4634 27.5742C34.6261 28.5074 33.768 29.4267 32.9652 30.3944C32.2594 31.2238 31.6158 32.1086 30.9791 32.9933C30.5086 33.6223 30.0311 34.2513 29.5882 34.901C29.0622 35.6545 28.5155 36.3871 27.9896 37.1406C27.4637 37.9009 26.9447 38.6612 26.4326 39.4284C26.1073 39.9123 25.7821 40.403 25.4015 40.8523C24.9517 41.3846 24.488 41.9444 23.9759 42.4352C23.7821 42.608 23.5953 42.7808 23.4084 42.9605C23.4084 42.9605 23.4084 42.9605 23.4015 42.9605C23.3116 42.9398 23.3116 42.8568 23.3323 42.7877C23.6991 42.3799 24.0659 41.979 24.4257 41.5643C24.8617 41.0597 25.2561 40.5206 25.6229 39.9676C27.5744 37.1198 29.5466 34.279 31.6435 31.528C32.4254 30.5119 33.2351 29.5096 34.107 28.5696C35.6087 26.9798 37.1588 25.4453 38.709 23.897C40.7089 21.9063 42.8403 20.0401 45.1586 18.4296C47.0063 17.1854 48.9716 16.1209 50.9992 15.2016C49.1031 16.2177 47.3315 17.455 45.5461 18.6439V18.6369Z" fill="#FEFEFE"/>
<path d="M47.249 53.6121C47.1936 53.7296 47.1175 53.8332 47.0345 53.93C46.1625 54.8355 44.8754 55.3055 43.6574 55.5474C42.4256 55.8032 41.1592 55.5682 39.9551 55.2986C41.1523 54.3102 42.4948 53.1559 42.7647 51.5453C43.0277 49.6169 41.2077 48.3658 39.4569 48.2829C33.6024 48.0893 28.3154 51.262 23.3536 54.006C21.4713 55.0359 19.3745 56.3562 17.1393 55.8377C16.8279 55.7479 16.5095 55.5474 16.4127 55.2157C16.4196 55.1258 16.3781 55.0221 16.2881 54.9806C15.5961 54.8424 16.0874 55.817 16.4057 55.9898C19.1531 57.5589 22.973 54.6489 25.402 53.3909C27.9071 52.0223 30.4952 50.6399 33.2218 49.7482C35.4847 49.0777 38.1628 48.3312 40.4949 48.9602C41.6852 49.3058 42.6125 50.55 42.2319 51.7942C41.7544 53.2319 40.5157 54.248 39.36 55.1465C37.54 54.7111 35.6508 54.2341 33.7685 54.5037C32.7305 54.6903 31.5333 55.0567 31.0142 56.052C30.2046 57.6833 32.2322 58.0012 33.4086 57.9667C35.6162 57.8975 37.7199 56.9921 39.4638 55.658C41.443 56.1764 43.4014 56.37 45.3321 55.5544C46.204 55.1535 47.1936 54.7111 47.6642 53.8194C47.8095 53.5498 47.3805 53.3287 47.2421 53.5982L47.249 53.6121ZM33.3463 57.5036C32.7097 57.4552 31.5886 57.545 31.3187 56.8331C31.2772 55.9345 32.2737 55.4092 33.0211 55.1811C34.938 54.6005 36.9587 55.0843 38.8548 55.5267C37.2562 56.6948 35.3394 57.4483 33.3463 57.5036V57.5036Z" fill="#FEFEFE"/>
</g>
<path d="M68.7747 46.1516V26.3892H60.9172V21.7965H82.3148V26.3892H74.4573V46.1516H68.7747Z" fill="white"/>
<path d="M94.8058 46.1516V42.4983L94.455 41.6981V35.157C94.455 33.9973 94.0925 33.0926 93.3676 32.4432C92.666 31.7937 91.5786 31.469 90.1053 31.469C89.0998 31.469 88.1059 31.6313 87.1237 31.9561C86.1649 32.2576 85.3464 32.6751 84.6683 33.2086L82.7039 29.4162C83.7328 28.6971 84.9723 28.1404 86.4222 27.7461C87.872 27.3518 89.3453 27.1546 90.842 27.1546C93.7184 27.1546 95.9517 27.8273 97.5419 29.1726C99.1321 30.518 99.9272 32.6171 99.9272 35.4702V46.1516H94.8058ZM89.053 46.4299C87.5797 46.4299 86.3169 46.1864 85.2646 45.6993C84.2122 45.189 83.4055 44.5047 82.8442 43.6465C82.283 42.7883 82.0023 41.8257 82.0023 40.7587C82.0023 39.6453 82.2713 38.6711 82.8091 37.8361C83.3704 37.0011 84.2473 36.3516 85.44 35.8877C86.6326 35.4006 88.1877 35.157 90.1053 35.157H95.1215V38.3232H90.7017C89.4155 38.3232 88.5268 38.5319 88.0357 38.9495C87.568 39.367 87.3342 39.8889 87.3342 40.5151C87.3342 41.211 87.6031 41.7677 88.141 42.1852C88.7022 42.5795 89.4622 42.7767 90.421 42.7767C91.3331 42.7767 92.1516 42.5679 92.8765 42.1504C93.6014 41.7097 94.1276 41.0718 94.455 40.2368L95.2969 42.7419C94.8993 43.948 94.1744 44.8643 93.122 45.4905C92.0697 46.1168 90.7134 46.4299 89.053 46.4299Z" fill="white"/>
<path d="M110.432 46.4299C108.818 46.4299 107.263 46.2444 105.766 45.8733C104.293 45.4789 103.124 44.9918 102.258 44.412L104.082 40.5151C104.948 41.0486 105.965 41.4893 107.134 41.8373C108.327 42.162 109.496 42.3244 110.642 42.3244C111.905 42.3244 112.794 42.1736 113.308 41.8721C113.846 41.5705 114.115 41.153 114.115 40.6195C114.115 40.1788 113.904 39.8541 113.483 39.6453C113.086 39.4134 112.548 39.2394 111.87 39.1234C111.192 39.0074 110.443 38.8915 109.625 38.7755C108.83 38.6595 108.023 38.5087 107.204 38.3232C106.386 38.1144 105.638 37.8129 104.959 37.4186C104.281 37.0242 103.732 36.4908 103.311 35.8181C102.913 35.1454 102.714 34.2756 102.714 33.2086C102.714 32.0257 103.054 30.9819 103.732 30.0772C104.433 29.1726 105.439 28.4652 106.748 27.9549C108.058 27.4214 109.625 27.1546 111.449 27.1546C112.735 27.1546 114.045 27.2938 115.378 27.5722C116.711 27.8505 117.821 28.2564 118.71 28.7899L116.886 32.6519C115.974 32.1184 115.05 31.7589 114.115 31.5733C113.203 31.3646 112.314 31.2602 111.449 31.2602C110.233 31.2602 109.344 31.4226 108.783 31.7473C108.222 32.072 107.941 32.4896 107.941 32.9999C107.941 33.4638 108.14 33.8117 108.537 34.0436C108.958 34.2756 109.508 34.4612 110.186 34.6003C110.864 34.7395 111.601 34.8671 112.396 34.9831C113.214 35.0758 114.033 35.2266 114.851 35.4354C115.67 35.6441 116.407 35.9457 117.061 36.34C117.74 36.7111 118.289 37.233 118.71 37.9057C119.131 38.5551 119.341 39.4134 119.341 40.4803C119.341 41.6401 118.991 42.6723 118.289 43.5769C117.588 44.4583 116.57 45.1542 115.237 45.6645C113.928 46.1748 112.326 46.4299 110.432 46.4299Z" fill="white"/>
<path d="M126.445 42.3244L126.586 35.7137L135.39 27.433H141.915L133.461 35.9573L130.62 38.2536L126.445 42.3244ZM121.92 46.1516V20.3352H127.393V46.1516H121.92ZM135.987 46.1516L129.602 38.2884L133.04 34.0784L142.616 46.1516H135.987Z" fill="white"/>
<path d="M144.28 46.1516V27.433H149.752V46.1516H144.28ZM147.016 24.8235C146.011 24.8235 145.192 24.5336 144.561 23.9537C143.929 23.3738 143.614 22.6547 143.614 21.7965C143.614 20.9383 143.929 20.2192 144.561 19.6394C145.192 19.0595 146.011 18.7695 147.016 18.7695C148.022 18.7695 148.84 19.0479 149.472 19.6046C150.103 20.1381 150.419 20.8339 150.419 21.6921C150.419 22.5968 150.103 23.3506 149.472 23.9537C148.864 24.5336 148.045 24.8235 147.016 24.8235Z" fill="white"/>
<path d="M154.7 46.1516V27.0155C154.7 24.9047 155.332 23.223 156.594 21.9705C157.857 20.6947 159.658 20.0569 161.996 20.0569C162.791 20.0569 163.551 20.1381 164.276 20.3004C165.025 20.4628 165.656 20.7179 166.171 21.0659L164.732 24.9975C164.428 24.7887 164.089 24.6263 163.715 24.5104C163.341 24.3944 162.943 24.3364 162.523 24.3364C161.727 24.3364 161.108 24.5684 160.663 25.0323C160.242 25.473 160.032 26.1456 160.032 27.0503V28.7899L160.172 31.121V46.1516H154.7ZM151.789 32.0257V27.8505H164.873V32.0257H151.789Z" fill="white"/>
<path d="M169.53 53.1798C168.547 53.1798 167.577 53.029 166.618 52.7275C165.659 52.4259 164.876 52.0084 164.268 51.4749L166.267 47.6129C166.688 47.984 167.168 48.274 167.706 48.4827C168.267 48.6915 168.816 48.7959 169.354 48.7959C170.126 48.7959 170.734 48.6103 171.178 48.2392C171.646 47.8913 172.067 47.2998 172.441 46.4647L173.423 44.1684L173.844 43.5769L180.614 27.433H185.876L177.352 47.2998C176.744 48.8075 176.042 49.9904 175.247 50.8487C174.476 51.7069 173.61 52.31 172.652 52.6579C171.716 53.0058 170.675 53.1798 169.53 53.1798ZM172.757 46.8823L164.338 27.433H169.986L176.51 43.0898L172.757 46.8823Z" fill="white"/>
<defs>
<clipPath id="clip0_547_10966">
<rect width="44.9812" height="51.723" fill="white" transform="translate(15.9358 6.25684)"/>
</clipPath>
</defs>
</svg>
