<svg width="4" height="18" viewBox="0 0 4 18" fill="none" xmlns="http://www.w3.org/2000/svg">
<path d="M1.99997 17.4809C1.51874 17.4809 1.10677 17.3096 0.764063 16.9669C0.421354 16.6242 0.25 16.2122 0.25 15.731C0.25 15.2497 0.421354 14.8378 0.764063 14.4951C1.10677 14.1524 1.51874 13.981 1.99997 13.981C2.4812 13.981 2.89317 14.1524 3.23588 14.4951C3.57859 14.8378 3.74994 15.2497 3.74994 15.731C3.74994 16.2122 3.57859 16.6242 3.23588 16.9669C2.89317 17.3096 2.4812 17.4809 1.99997 17.4809ZM1.99997 10.7502C1.51874 10.7502 1.10677 10.5789 0.764063 10.2361C0.421354 9.89344 0.25 9.48147 0.25 9.00024C0.25 8.51901 0.421354 8.10704 0.764063 7.76433C1.10677 7.42162 1.51874 7.25026 1.99997 7.25026C2.4812 7.25026 2.89317 7.42162 3.23588 7.76433C3.57859 8.10704 3.74994 8.51901 3.74994 9.00024C3.74994 9.48147 3.57859 9.89344 3.23588 10.2361C2.89317 10.5789 2.4812 10.7502 1.99997 10.7502ZM1.99997 4.01944C1.51874 4.01944 1.10677 3.84809 0.764063 3.50538C0.421354 3.16269 0.25 2.75072 0.25 2.26947C0.25 1.78824 0.421354 1.37627 0.764063 1.03357C1.10677 0.690876 1.51874 0.519531 1.99997 0.519531C2.4812 0.519531 2.89317 0.690876 3.23588 1.03357C3.57859 1.37627 3.74994 1.78824 3.74994 2.26947C3.74994 2.75072 3.57859 3.16269 3.23588 3.50538C2.89317 3.84809 2.4812 4.01944 1.99997 4.01944Z" fill="black"/>
</svg>
