<svg width="200" height="274" viewBox="0 0 200 274" fill="none" xmlns="http://www.w3.org/2000/svg">
<g clip-path="url(#clip0_36219_85604)">
<path d="M199.971 56.6332C199.879 56.481 199.664 56.3796 199.448 56.4303C197.571 57.0898 195.694 57.6478 193.756 58.2311C188.433 59.8544 182.894 60.9197 177.356 61.9849C171.018 63.1517 164.556 63.9887 158.248 65.2822C152.802 66.3728 147.387 67.6918 142.156 69.4165C138.218 70.6847 134.341 72.0543 130.71 73.8044C126.402 75.7574 122.925 78.6742 119.541 81.5657C116.433 84.2542 113.294 86.9428 110.556 89.9103C109.018 91.5843 107.725 93.4105 106.494 95.2367C108.433 89.2001 111.141 83.1128 116.094 78.2938C116.464 77.9133 116.033 77.4568 115.51 77.6597C114.248 78.1669 113.079 78.8264 111.879 79.4351C102.71 84.5586 94.5252 90.9248 87.4791 97.9506C84.0329 101.425 80.7098 104.976 77.9714 108.857C74.8021 113.397 72.4021 118.292 70.6791 123.34C70.4944 120.347 70.8021 117.354 71.2944 114.386C71.3868 113.854 71.4791 113.346 71.5098 112.814C71.5098 112.459 71.6329 111.951 71.2021 111.748C70.8944 111.622 70.5868 111.748 70.3714 111.951C70.0945 112.18 69.8791 112.433 69.6329 112.687C69.1406 113.219 68.6483 113.777 68.1868 114.335C66.6483 116.136 65.2637 118.039 64.0637 120.017C61.1098 125.014 58.4021 130.061 55.6637 135.134C52.8945 140.206 50.3406 145.381 47.6637 150.479C45.1098 155.298 42.3098 160.041 39.4175 164.733C37.8483 167.244 36.2483 169.755 34.3714 172.139C33.5714 173.154 32.7406 174.143 31.8791 175.107C32.0021 174.904 32.1252 174.726 32.2483 174.523C34.7714 170.44 36.4945 166.077 38.0637 161.689C39.356 158.874 40.6483 156.059 42.0945 153.319C43.7868 150.2 45.2944 147.029 46.7406 143.833C49.6329 137.797 53.1406 132.014 57.1406 126.409C59.7252 122.782 62.4944 119.231 65.0175 115.553C67.3868 112.103 69.2637 108.451 71.4175 104.926C73.0175 102.288 74.6483 99.6499 76.0329 96.936C76.4329 96.1751 76.8329 95.3888 77.2021 94.6026C77.356 94.2221 77.5406 93.8163 77.6329 93.4105C77.6329 93.2583 77.6637 93.0808 77.5406 92.9286C77.2637 92.5735 76.7098 92.7003 76.3714 92.9286C75.3868 93.5373 74.4637 94.1714 73.5098 94.8308C70.4329 96.9868 67.2329 99.0158 63.9406 100.943C70.9868 93.8924 78.4945 86.6891 81.8791 77.8118C82.1252 77.0509 82.8021 75.1487 82.1252 74.5146C81.6637 74.1848 81.1406 74.6414 80.8637 74.9204C78.0021 77.8626 74.9868 80.7033 71.6329 83.265C72.9252 81.591 74.156 79.8663 75.2637 78.0908C77.1098 75.0472 78.9252 71.9782 80.4329 68.8078C82.2175 64.9271 83.5714 60.945 84.9868 56.9883C86.4329 52.6765 87.7252 48.3139 89.2944 44.0275C89.4483 43.6217 89.6021 43.2158 89.6944 42.7847C89.6944 42.6578 89.756 42.5057 89.6944 42.3788C89.6021 42.1506 89.2637 41.9984 88.9868 42.0745C88.7406 42.1252 88.4944 42.252 88.2791 42.4042C85.1406 44.8391 82.3406 47.553 79.3252 50.064C77.1098 51.9409 74.8637 53.8432 72.7406 55.7962C68.4637 59.8037 64.6483 64.1662 61.6329 68.8838C58.8945 73.1703 56.8945 77.8118 55.6637 82.5548C54.0021 88.7436 53.4483 95.0845 52.4021 101.349C51.2021 98.6354 50.4945 95.7693 50.3406 92.8525C50.2791 91.8887 50.2175 90.8741 50.156 89.8342C50.156 89.3523 50.156 88.3124 49.2637 88.5407C48.9868 88.6675 48.8329 88.9211 48.6791 89.1747C48.4021 89.6313 48.156 90.1132 47.9098 90.5951C47.1406 92.0662 46.2791 93.4866 45.4791 94.9323C43.2021 98.9905 41.2329 103.201 40.2175 107.589C39.3252 111.19 38.8637 114.868 38.8637 118.52C38.8637 123.644 39.8175 128.691 39.7868 133.84C38.0945 131.583 36.3714 129.3 35.6637 126.662C35.2945 125.419 35.0175 124.177 34.7714 122.934C34.7098 122.579 34.6175 122.198 34.556 121.843C34.4945 121.589 34.4945 121.26 34.2483 121.082C33.6945 120.727 33.3252 121.336 33.2021 121.716C32.156 124.456 31.6329 127.347 31.5098 130.238C31.356 133.155 31.6945 136.072 32.0329 138.989C32.3406 141.627 32.6791 144.265 32.8945 146.928C32.7406 147.892 32.6791 148.855 32.5868 149.819C32.2175 154.562 31.5714 159.305 30.4637 163.972C29.7252 167.726 28.7714 171.429 27.1714 175.031C26.2483 177.592 25.0483 180.078 23.5406 182.437C23.2945 182.767 23.0791 183.122 22.8637 183.451C19.8791 187.839 17.1406 192.329 14.1252 196.691C12.3098 199.253 10.556 201.865 8.92522 204.529C7.72522 206.253 6.61753 208.003 5.66369 209.804C4.83292 211.326 4.03292 212.873 3.29445 214.42C3.01753 215.08 2.21753 216.399 2.6483 217.058C3.29445 217.54 3.81753 216.906 4.21753 216.221C4.30984 216.145 4.40215 216.069 4.46369 215.993C4.70984 215.714 4.92522 215.435 5.10984 215.131C5.60215 214.446 6.09445 213.786 6.55599 213.127C8.58676 210.21 10.556 207.268 12.556 204.326C15.5406 199.76 18.8021 195.322 22.0945 190.883C22.6483 190.147 23.1714 189.412 23.7252 188.651C24.4021 187.839 25.0791 187.053 25.7868 186.241C27.0483 184.821 28.4021 183.451 29.8791 182.183C31.6945 180.535 33.9714 178.937 36.0944 177.542C39.1714 175.487 41.9406 173.154 44.6483 170.795C50.956 165.139 56.8944 159.204 63.0483 153.421C67.1406 149.363 71.5406 145.457 76.2483 141.906C79.7252 139.496 83.3252 137.188 86.9868 134.981C92.8329 131.532 98.9868 128.463 104.802 124.963C111.664 120.829 118.371 116.517 124.525 111.672C124.71 111.495 124.925 111.292 124.802 111.038C124.679 110.708 124.187 110.759 123.848 110.835C122.464 111.14 121.141 111.596 119.787 111.875C118.402 112.129 116.987 112.357 115.602 112.56C111.818 113.169 107.941 113.422 104.094 113.448C106.279 112.763 108.494 112.103 110.71 111.495C116.218 110.125 121.787 108.958 127.171 107.284C136.741 104.57 145.11 99.7007 152.771 94.3489C154.648 93.0554 156.556 91.7618 158.279 90.3161C158.587 90.0118 159.048 89.7328 159.11 89.3016C159.11 88.7943 158.371 88.7943 157.91 88.8958C153.602 89.6567 149.264 90.3922 144.894 90.7727C142.002 91.0009 138.987 91.1785 136.094 90.7473C139.448 89.9103 142.833 89.1748 146.279 88.5914C149.479 88.0588 152.71 87.5515 155.818 86.7652C160.648 85.5985 164.987 83.3158 168.679 80.5258C170.894 78.7757 172.956 76.8988 174.987 74.9965C177.141 72.9674 179.079 70.7861 181.356 68.8331C184.341 66.246 187.602 63.8872 191.079 61.782C193.664 60.108 196.433 58.6877 199.294 57.3434C199.51 57.2419 199.725 57.1912 199.941 57.0898C200.125 56.9883 200.187 56.8108 200.094 56.6332H199.971ZM31.8175 177.136C31.8175 177.136 31.8175 177.136 31.756 177.136H31.7868H31.8175ZM39.1714 149.87C41.5406 143.478 43.8175 137.061 46.2791 130.695C48.5868 124.177 50.8945 117.658 53.3252 111.19C56.0329 103.531 58.1868 95.7439 61.0483 88.1095C63.0791 82.7324 65.356 77.406 67.9098 72.1811C70.2175 67.4635 72.8021 62.8219 76.3098 58.6116C73.4483 64.2169 70.4945 69.7716 68.0021 75.4784C65.6021 80.475 63.5714 85.5731 61.8175 90.7473C57.5406 102.186 54.956 114.006 50.8329 125.47C49.0791 130.543 47.1098 135.565 44.9868 140.561C43.4791 144.138 41.6945 147.714 40.2175 151.29C36.9252 159.229 33.8791 167.244 30.1252 175.056C30.0637 175.107 30.0021 175.157 29.9406 175.208C29.8175 175.183 29.6945 175.208 29.6021 175.234C30.2483 173.56 30.8637 171.86 31.3868 170.161C33.8791 163.363 36.6175 156.642 39.1714 149.87V149.87ZM131.664 87.5261C128.094 89.5552 124.525 91.5843 121.141 93.7909C115.51 97.494 110.033 101.324 104.587 105.205C101.418 107.538 98.556 110.15 95.5714 112.661C92.6175 115.198 89.6329 117.683 86.8329 120.321C83.1098 123.745 79.2945 127.119 75.7252 130.67C72.5868 133.713 69.7252 136.96 66.8944 140.206C64.8021 142.514 62.6791 144.823 60.7098 147.207C58.3714 149.971 55.9406 152.66 53.6021 155.425C51.2637 158.215 48.956 161.005 46.6791 163.82C45.2329 165.595 43.7868 167.396 42.0945 169.045C40.0945 170.998 38.0329 173.052 35.756 174.853C34.8945 175.487 34.0637 176.121 33.2329 176.781C33.2329 176.781 33.2329 176.781 33.2021 176.781C32.8021 176.705 32.8021 176.4 32.8945 176.147C34.5252 174.65 36.156 173.179 37.756 171.657C39.6945 169.806 41.4483 167.827 43.0791 165.798C51.756 155.348 60.5252 144.924 69.8483 134.829C73.3252 131.101 76.9252 127.423 80.8021 123.974C87.4791 118.14 94.3714 112.509 101.264 106.828C110.156 99.5231 119.633 92.6749 129.941 86.7652C138.156 82.1998 146.894 78.2938 155.91 74.9204C147.479 78.6488 139.602 83.1889 131.664 87.5515V87.5261Z" fill="white"/>
<path d="M139.229 215.868C138.983 216.299 138.645 216.679 138.275 217.034C134.399 220.357 128.675 222.082 123.26 222.969C117.783 223.908 112.152 223.045 106.799 222.056C112.122 218.429 118.091 214.194 119.291 208.284C120.46 201.207 112.368 196.617 104.583 196.312C78.5524 195.602 55.0447 207.244 32.9832 217.313C24.6139 221.092 15.2909 225.937 5.3524 224.035C3.96778 223.705 2.5524 222.969 2.12163 221.752C2.1524 221.422 1.96778 221.042 1.56778 220.89C-1.50914 220.382 0.675472 223.959 2.09086 224.593C14.3062 230.35 31.2909 219.672 42.0909 215.056C53.2293 210.034 64.737 204.961 76.8601 201.689C86.9216 199.229 98.8293 196.49 109.199 198.798C114.491 200.066 118.614 204.631 116.922 209.197C114.799 214.473 109.291 218.201 104.152 221.498C96.0601 219.9 87.6601 218.15 79.2909 219.139C74.6755 219.824 69.3524 221.169 67.0447 224.821C63.4447 230.807 72.4601 231.973 77.6909 231.847C87.5062 231.593 96.8601 228.27 104.614 223.375C113.414 225.277 122.122 225.988 130.706 222.995C134.583 221.524 138.983 219.9 141.075 216.628C141.722 215.639 139.814 214.828 139.199 215.817L139.229 215.868ZM77.4139 230.147C74.5832 229.97 69.5986 230.299 68.3986 227.687C68.2139 224.39 72.6447 222.462 75.9678 221.625C84.4909 219.495 93.4755 221.27 101.906 222.893C94.7986 227.18 86.2755 229.944 77.4139 230.147V230.147Z" fill="white"/>
</g>
<defs>
<clipPath id="clip0_36219_85604">
<rect width="200" height="189.796" fill="white" transform="translate(0 42.1016)"/>
</clipPath>
</defs>
</svg>
