<svg width="81" height="23" viewBox="0 0 81 23" fill="none" xmlns="http://www.w3.org/2000/svg">
<path d="M5.43669 18.0412V5.40626H0.40625V2.46996H14.1052V5.40626H9.07477V18.0412H5.43669Z" fill="#5534DA"/>
<path d="M22.1021 18.0412V15.7055L21.8775 15.1939V11.0119C21.8775 10.2704 21.6455 9.69207 21.1813 9.27683C20.7322 8.8616 20.036 8.65398 19.0928 8.65398C18.449 8.65398 17.8127 8.75779 17.1839 8.96541C16.5701 9.15819 16.0461 9.42513 15.6119 9.76622L14.3543 7.34154C15.0131 6.88182 15.8066 6.52591 16.7348 6.2738C17.663 6.02169 18.6062 5.89564 19.5644 5.89564C21.4059 5.89564 22.8357 6.3257 23.8538 7.18583C24.8718 8.04596 25.3809 9.38805 25.3809 11.2121V18.0412H22.1021ZM18.4191 18.2192C17.4759 18.2192 16.6674 18.0635 15.9937 17.7521C15.32 17.4258 14.8035 16.9883 14.4442 16.4396C14.0848 15.8909 13.9052 15.2755 13.9052 14.5933C13.9052 13.8815 14.0773 13.2586 14.4217 12.7248C14.781 12.1909 15.3424 11.7757 16.106 11.4791C16.8695 11.1676 17.8651 11.0119 19.0928 11.0119H22.3042V13.0362H19.4746C18.6512 13.0362 18.0822 13.1697 17.7678 13.4366C17.4684 13.7035 17.3187 14.0372 17.3187 14.4376C17.3187 14.8825 17.4909 15.2384 17.8352 15.5053C18.1945 15.7575 18.6811 15.8835 19.2949 15.8835C19.8788 15.8835 20.4028 15.75 20.8669 15.4831C21.3311 15.2013 21.6679 14.7935 21.8775 14.2596L22.4165 15.8613C22.162 16.6324 21.6979 17.2182 21.0241 17.6186C20.3504 18.019 19.4821 18.2192 18.4191 18.2192Z" fill="#5534DA"/>
<path d="M32.1059 18.2192C31.0729 18.2192 30.0773 18.1006 29.1191 17.8633C28.1759 17.6112 27.4273 17.2997 26.8734 16.929L28.0412 14.4376C28.5951 14.7787 29.2464 15.0605 29.9949 15.2829C30.7585 15.4905 31.5071 15.5943 32.2407 15.5943C33.0491 15.5943 33.618 15.4979 33.9474 15.3051C34.2918 15.1124 34.4639 14.8454 34.4639 14.5043C34.4639 14.2226 34.3292 14.015 34.0597 13.8815C33.8052 13.7332 33.4608 13.622 33.0267 13.5478C32.5925 13.4737 32.1134 13.3995 31.5894 13.3254C31.0804 13.2512 30.5639 13.1548 30.0399 13.0362C29.5158 12.9027 29.0368 12.7099 28.6026 12.4578C28.1684 12.2057 27.8166 11.8646 27.5471 11.4346C27.2926 11.0045 27.1653 10.4484 27.1653 9.76622C27.1653 9.0099 27.3824 8.34255 27.8166 7.76419C28.2657 7.18583 28.9095 6.73352 29.7479 6.40727C30.5863 6.06618 31.5894 5.89564 32.7572 5.89564C33.5806 5.89564 34.419 5.98462 35.2724 6.16257C36.1258 6.34053 36.8369 6.60005 37.4058 6.94114L36.2381 9.4103C35.6542 9.06921 35.0628 8.83935 34.4639 8.72071C33.88 8.58725 33.3111 8.52051 32.7572 8.52051C31.9787 8.52051 31.4097 8.62432 31.0504 8.83194C30.6911 9.03955 30.5115 9.30649 30.5115 9.63275C30.5115 9.92934 30.6387 10.1518 30.8932 10.3001C31.1627 10.4484 31.5145 10.567 31.9487 10.656C32.3829 10.745 32.8545 10.8265 33.3635 10.9007C33.8875 10.96 34.4115 11.0564 34.9355 11.1899C35.4595 11.3233 35.9311 11.5161 36.3503 11.7682C36.7845 12.0055 37.1364 12.3392 37.4058 12.7692C37.6753 13.1845 37.8101 13.7332 37.8101 14.4154C37.8101 15.1568 37.5855 15.8168 37.1364 16.3951C36.6872 16.9587 36.0359 17.4036 35.1826 17.7298C34.3442 18.0561 33.3186 18.2192 32.1059 18.2192Z" fill="#5534DA"/>
<path d="M42.3582 15.5943L42.448 11.3678L48.0848 6.0736H52.2619L46.8496 11.5235L45.0306 12.9917L42.3582 15.5943ZM39.4612 18.0412V1.53568H42.9645V18.0412H39.4612ZM48.4666 18.0412L44.3793 13.0139L46.5802 10.3223L52.711 18.0412H48.4666Z" fill="#5534DA"/>
<path d="M53.7761 18.0412V6.0736H57.2795V18.0412H53.7761ZM55.5278 4.40524C54.884 4.40524 54.36 4.21987 53.9558 3.84913C53.5516 3.47838 53.3494 3.01866 53.3494 2.46996C53.3494 1.92125 53.5516 1.46153 53.9558 1.09079C54.36 0.720041 54.884 0.534668 55.5278 0.534668C56.1716 0.534668 56.6956 0.712626 57.0998 1.06854C57.504 1.40963 57.7062 1.85452 57.7062 2.40322C57.7062 2.98158 57.504 3.46355 57.0998 3.84913C56.7105 4.21987 56.1865 4.40524 55.5278 4.40524Z" fill="#5534DA"/>
<path d="M60.4472 18.0412V5.80666C60.4472 4.45715 60.8514 3.38199 61.6599 2.58118C62.4683 1.76554 63.6211 1.35772 65.1183 1.35772C65.6273 1.35772 66.1139 1.40963 66.578 1.51343C67.0571 1.61724 67.4613 1.78037 67.7907 2.00282L66.8699 4.51647C66.6753 4.383 66.4582 4.27919 66.2187 4.20504C65.9791 4.13089 65.7246 4.09382 65.4551 4.09382C64.9461 4.09382 64.5494 4.24212 64.2649 4.53871C63.9954 4.82048 63.8607 5.25054 63.8607 5.8289V6.94114L63.9505 8.43153V18.0412H60.4472ZM58.5832 9.0099V6.34053H66.9598V9.0099H58.5832Z" fill="#5534DA"/>
<path d="M69.9411 22.5347C69.3123 22.5347 68.691 22.4383 68.0772 22.2455C67.4634 22.0527 66.9618 21.7858 66.5725 21.4447L67.8526 18.9755C68.1221 19.2128 68.429 19.3982 68.7734 19.5316C69.1327 19.6651 69.4845 19.7318 69.8289 19.7318C70.3229 19.7318 70.7122 19.6132 70.9966 19.3759C71.2961 19.1535 71.5656 18.7753 71.8051 18.2414L72.4339 16.7733L72.7034 16.3951L77.0377 6.0736H80.4062L74.9491 18.7753C74.5599 19.7393 74.1107 20.4956 73.6017 21.0443C73.1076 21.593 72.5537 21.9785 71.9398 22.201C71.341 22.4234 70.6748 22.5347 69.9411 22.5347ZM72.0072 18.5084L66.6175 6.0736H70.2331L74.4101 16.0837L72.0072 18.5084Z" fill="#5534DA"/>
</svg>
