<svg width="22" height="22" viewBox="0 0 22 22" fill="none" xmlns="http://www.w3.org/2000/svg">
<path d="M1.50481 21.6249C1.18471 21.6249 0.916385 21.5167 0.699843 21.3001C0.483281 21.0836 0.375 20.8152 0.375 20.4951V18.3293C0.375 18.0245 0.4335 17.7339 0.5505 17.4577C0.667479 17.1814 0.828531 16.9407 1.03366 16.7356L16.863 0.913469C17.052 0.741782 17.2607 0.609114 17.4891 0.515469C17.7175 0.421823 17.957 0.375 18.2077 0.375C18.4583 0.375 18.701 0.41948 18.936 0.508438C19.1709 0.597376 19.3789 0.738792 19.56 0.932688L21.0865 2.47834C21.2804 2.65943 21.4186 2.8678 21.5011 3.10347C21.5837 3.33912 21.6249 3.57476 21.6249 3.81041C21.6249 4.06176 21.582 4.30164 21.4962 4.53003C21.4103 4.75845 21.2738 4.96717 21.0865 5.15619L5.26434 20.9663C5.05922 21.1714 4.81853 21.3325 4.54228 21.4494C4.26601 21.5664 3.97546 21.6249 3.67062 21.6249H1.50481ZM17.9399 5.61775L19.75 3.81966L18.1803 2.24997L16.3822 4.06006L17.9399 5.61775Z" fill="white"/>
</svg>
