<svg width="20" height="20" viewBox="0 0 20 20" fill="none" xmlns="http://www.w3.org/2000/svg">
<path d="M8.73219 17.9163C8.54521 17.9163 8.38335 17.8535 8.2466 17.728C8.10985 17.6025 8.02759 17.4462 7.99981 17.2592L7.75783 15.3778C7.53454 15.3031 7.30564 15.1983 7.07112 15.0637C6.83661 14.9291 6.62694 14.7849 6.4421 14.631L4.70173 15.365C4.52331 15.443 4.34623 15.4521 4.17048 15.3922C3.99473 15.3324 3.85664 15.2202 3.75621 15.0557L2.50304 12.8731C2.40794 12.7085 2.37856 12.5328 2.41489 12.3458C2.45121 12.1588 2.54469 12.0082 2.69533 11.8939L4.20175 10.7545C4.18251 10.6305 4.16889 10.5061 4.16087 10.3811C4.15286 10.2561 4.14885 10.1316 4.14885 10.0077C4.14885 9.88908 4.15286 9.76861 4.16087 9.64628C4.16889 9.52395 4.18251 9.39013 4.20175 9.24484L2.69533 8.1054C2.54469 7.9911 2.44988 7.84046 2.41089 7.65349C2.37189 7.46653 2.40261 7.29079 2.50304 7.12626L3.75621 4.95963C3.85664 4.79511 3.99339 4.68292 4.16648 4.62309C4.33955 4.56326 4.51529 4.57234 4.69371 4.65034L6.43408 5.3763C6.63494 5.21711 6.84942 5.07154 7.07752 4.93959C7.30563 4.80763 7.52973 4.70159 7.74981 4.62147L7.99981 2.74007C8.02759 2.5531 8.10985 2.39685 8.2466 2.27132C8.38335 2.14578 8.54521 2.08301 8.73219 2.08301H11.2562C11.4431 2.08301 11.6063 2.14578 11.7457 2.27132C11.8852 2.39685 11.9688 2.5531 11.9966 2.74007L12.2385 4.62949C12.4885 4.72029 12.7148 4.82633 12.9172 4.94759C13.1197 5.06886 13.324 5.21176 13.5302 5.3763L15.3027 4.65034C15.4811 4.57234 15.6568 4.56192 15.8299 4.61909C16.003 4.67624 16.1397 4.78708 16.2402 4.95161L17.4933 7.12626C17.5938 7.29079 17.6245 7.46653 17.5855 7.65349C17.5465 7.84046 17.4517 7.9911 17.301 8.1054L15.7626 9.26886C15.7925 9.40349 15.8088 9.52929 15.8115 9.64628C15.8141 9.76327 15.8155 9.88106 15.8155 9.99966C15.8155 10.1129 15.8128 10.228 15.8075 10.345C15.8021 10.462 15.7829 10.5958 15.7497 10.7465L17.2722 11.8939C17.4228 12.0082 17.5176 12.1588 17.5566 12.3458C17.5956 12.5328 17.5649 12.7085 17.4645 12.8731L16.2113 15.0429C16.1109 15.2074 15.9707 15.3204 15.7906 15.3818C15.6106 15.4433 15.4314 15.435 15.253 15.357L13.5302 14.623C13.324 14.7876 13.1136 14.9331 12.8988 15.0597C12.6841 15.1863 12.464 15.2897 12.2385 15.3698L11.9966 17.2592C11.9688 17.4462 11.8852 17.6025 11.7457 17.728C11.6063 17.8535 11.4431 17.9163 11.2562 17.9163H8.73219ZM9.16485 16.6663H10.8027L11.1024 14.4339C11.5276 14.3228 11.9162 14.165 12.2682 13.9604C12.6202 13.7558 12.9597 13.4927 13.2866 13.1711L15.3572 14.0413L16.1777 12.6247L14.37 11.2625C14.4394 11.0467 14.4867 10.8351 14.5118 10.6279C14.5369 10.4206 14.5495 10.2112 14.5495 9.99966C14.5495 9.78278 14.5369 9.57338 14.5118 9.37145C14.4867 9.16953 14.4394 8.96334 14.37 8.75286L16.1937 7.37465L15.3732 5.95799L13.2786 6.84101C12.9998 6.54293 12.6657 6.27957 12.2762 6.05095C11.8868 5.82231 11.4928 5.66045 11.0943 5.56536L10.8315 3.33299H9.17767L8.90204 5.55734C8.47682 5.65777 8.08419 5.81162 7.72414 6.01888C7.3641 6.22615 7.02062 6.49325 6.69371 6.82018L4.62319 5.95799L3.80267 7.37465L5.60235 8.71601C5.53291 8.91365 5.4843 9.11931 5.45652 9.33299C5.42874 9.54667 5.41485 9.77156 5.41485 10.0077C5.41485 10.2246 5.42874 10.4372 5.45652 10.6455C5.4843 10.8538 5.53023 11.0595 5.59433 11.2625L3.80267 12.6247L4.62319 14.0413L6.68569 13.1663C7.00192 13.4911 7.34006 13.7571 7.7001 13.9644C8.06014 14.1717 8.45812 14.3309 8.89402 14.442L9.16485 16.6663ZM10.0078 12.4996C10.7012 12.4996 11.2912 12.2563 11.7778 11.7697C12.2645 11.283 12.5078 10.693 12.5078 9.99966C12.5078 9.30629 12.2645 8.71629 11.7778 8.22963C11.2912 7.743 10.7012 7.49968 10.0078 7.49968C9.30589 7.49968 8.71375 7.743 8.23137 8.22963C7.74901 8.71629 7.50783 9.30629 7.50783 9.99966C7.50783 10.693 7.74901 11.283 8.23137 11.7697C8.71375 12.2563 9.30589 12.4996 10.0078 12.4996Z" fill="#787486"/>
</svg>
